<?xml version="1.0" encoding="UTF-8"?>
<svg width="1200pt" height="1200pt" version="1.1" viewBox="0 0 1200 1200" xmlns="http://www.w3.org/2000/svg">
 <g>
  <rect width="1200" height="1200" fill="#fff"/>
  <path d="m940.07 600c0-187.41-152.66-340.07-340.07-340.07-187.41 0-340.07 152.66-340.07 340.07 0 23.426 2.2656 46.098 6.8008 68.016h-0.75391l5.2891 18.895c0 0.75391 0.75391 1.5117 0.75391 2.2656 0.75391 3.0234 1.5117 6.0469 3.0234 9.0703 0.75391 1.5117 0.75391 3.0234 1.5117 4.5352 1.5117 4.5352 3.0234 9.0703 4.5352 13.602v0.75391c30.984 83.883 92.953 151.14 171.55 188.93 0.75391 0 1.5117 0.75391 2.2656 0.75391 3.7773 1.5117 7.5586 3.7773 11.336 5.2891 1.5117 0.75391 3.7773 1.5117 5.2891 2.2656 3.0234 0.75391 6.0469 2.2656 8.3125 3.0234 2.2656 0.75391 4.5352 1.5117 6.0469 2.2656 2.2656 0.75391 5.2891 1.5117 8.3125 3.0234 2.2656 0.75391 4.5352 1.5117 6.8008 2.2656 3.0234 0.75391 6.0469 1.5117 8.3125 2.2656 3.0234 0.75391 6.0469 1.5117 9.0703 2.2656 3.7773 0.75391 7.5586 1.5117 11.336 2.2656 2.2656 0.75391 4.5352 0.75391 6.8008 1.5117 3.0234 0.75391 6.0469 0.75391 8.3125 1.5117 2.2656 0 4.5352 0.75391 6.8008 0.75391 3.0234 0.75391 6.0469 0.75391 9.0703 1.5117 2.2656 0 4.5352 0.75391 6.8008 0.75391 3.0234 0 6.8008 0.75391 10.578 0.75391 1.5117 0 3.7773 0 5.2891 0.75391h15.871 15.871c1.5117 0 3.7773 0 5.2891-0.75391 3.7773 0 6.8008-0.75391 10.578-0.75391 2.2656 0 4.5352-0.75391 6.8008-0.75391 3.0234 0 6.0469-0.75391 9.0703-1.5117 2.2656 0 4.5352-0.75391 6.8008-0.75391 3.0234-0.75391 6.0469-0.75391 8.3125-1.5117 2.2656-0.75391 4.5352-0.75391 6.8008-1.5117 3.7773-0.75391 7.5586-1.5117 11.336-2.2656 3.0234-0.75391 6.0469-1.5117 9.8242-2.2656 3.0234-0.75391 6.0469-1.5117 8.3125-2.2656s4.5352-1.5117 6.8008-2.2656c2.2656-0.75391 5.2891-1.5117 8.3125-3.0234 2.2656-0.75391 4.5352-1.5117 6.0469-2.2656 3.0234-0.75391 6.0469-2.2656 8.3125-3.0234 1.5117-0.75391 3.7773-1.5117 5.2891-2.2656 3.7773-1.5117 7.5586-3.0234 11.336-5.2891 0.75391 0 1.5117-0.75391 2.2656-0.75391 78.594-37.785 140.56-105.04 171.55-188.93v-0.75391c1.5117-4.5352 3.0234-9.0703 4.5352-13.602 0.75391-1.5117 0.75391-3.0234 1.5117-4.5352 0.75391-3.0234 1.5117-6.0469 3.0234-9.0703 0-0.75391 0.75391-1.5117 0.75391-2.2656l5.2891-18.895h-0.75391c5.2969-21.914 7.5664-44.586 7.5664-68.016zm-235.03 148.12c-5.2891 16.625-13.602 31.738-24.184 44.586-10.578 13.602-23.426 23.426-37.031 30.23-13.602 6.8008-28.715 11.336-43.832 11.336-30.984 0-59.703-14.359-80.863-41.562-10.578-12.848-18.137-27.961-24.184-44.586-1.5117-4.5352-0.75391-9.8242 2.2656-13.602 3.0234-3.7773 7.5586-6.0469 12.09-6.0469h181.37c4.5352 0 9.0703 2.2656 12.09 6.0469 3.0312 3.7734 3.7891 9.0625 2.2773 13.598zm197.24-80.105h-604.57c-5.2891-21.914-7.5586-44.586-7.5586-68.016 0.003906-170.79 139.05-309.84 309.84-309.84 170.79 0 309.84 139.05 309.84 309.84 0 23.426-3.0234 46.098-7.5547 68.012zm-377.86-75.57c0 8.3125-6.8008 15.113-15.113 15.113s-15.113-6.8008-15.113-15.113c0-21.16-16.625-37.785-37.785-37.785-21.16 0-37.785 16.625-37.785 37.785 0 8.3125-6.8008 15.113-15.113 15.113s-15.113-6.8008-15.113-15.113c0-37.785 30.23-68.016 68.016-68.016 37.781 0 68.008 30.23 68.008 68.016zm287.17 0c0 8.3125-6.8008 15.113-15.113 15.113s-15.113-6.8008-15.113-15.113c0-21.16-16.625-37.785-37.785-37.785s-37.785 16.625-37.785 37.785c0 8.3125-6.8008 15.113-15.113 15.113s-15.113-6.8008-15.113-15.113c0-37.785 30.23-68.016 68.016-68.016 37.781 0 68.008 30.23 68.008 68.016z"/>
 </g>
</svg>
